<?xml version="1.0" encoding="UTF-8"?>
<svg version="1.1" xmlns="http://www.w3.org/2000/svg" width="720" height="720">
<path d="M0 0 C51.81 0 103.62 0 157 0 C157 7.26 157 14.52 157 22 C179.44 22 201.88 22 225 22 C225 29.59 225 37.18 225 45 C232.26 45 239.52 45 247 45 C247 52.26 247 59.52 247 67 C254.59 67 262.18 67 270 67 C270 74.59 270 82.18 270 90 C277.26 90 284.52 90 292 90 C292 97.26 292 104.52 292 112 C299.59 112 307.18 112 315 112 C315 126.85 315 141.7 315 157 C322.26 157 329.52 157 337 157 C337 194.29 337 231.58 337 270 C329.74 270 322.48 270 315 270 C315 284.85 315 299.7 315 315 C307.41 315 299.82 315 292 315 C292 322.26 292 329.52 292 337 C284.74 337 277.48 337 270 337 C270 344.59 270 352.18 270 360 C262.41 360 254.82 360 247 360 C247 367.26 247 374.52 247 382 C239.74 382 232.48 382 225 382 C225 389.59 225 397.18 225 405 C202.56 405 180.12 405 157 405 C157 412.26 157 419.52 157 427 C105.19 427 53.38 427 0 427 C0 419.74 0 412.48 0 405 C-22.44 405 -44.88 405 -68 405 C-68 397.41 -68 389.82 -68 382 C-75.26 382 -82.52 382 -90 382 C-90 374.74 -90 367.48 -90 360 C-97.59 360 -105.18 360 -113 360 C-113 352.41 -113 344.82 -113 337 C-120.26 337 -127.52 337 -135 337 C-135 329.74 -135 322.48 -135 315 C-142.59 315 -150.18 315 -158 315 C-158 300.15 -158 285.3 -158 270 C-165.26 270 -172.52 270 -180 270 C-180 232.71 -180 195.42 -180 157 C-172.74 157 -165.48 157 -158 157 C-158 142.15 -158 127.3 -158 112 C-150.41 112 -142.82 112 -135 112 C-135 104.74 -135 97.48 -135 90 C-127.74 90 -120.48 90 -113 90 C-113 82.41 -113 74.82 -113 67 C-105.41 67 -97.82 67 -90 67 C-90 59.74 -90 52.48 -90 45 C-82.74 45 -75.48 45 -68 45 C-68 37.41 -68 29.82 -68 22 C-45.56 22 -23.12 22 0 22 C0 14.74 0 7.48 0 0 Z " fill="#EA76CB" transform="translate(270,270)"/>
<path d="M0 0 C29.7 0 59.4 0 90 0 C90 7.26 90 14.52 90 22 C97.59 22 105.18 22 113 22 C113 29.59 113 37.18 113 45 C120.26 45 127.52 45 135 45 C135 74.7 135 104.4 135 135 C127.74 135 120.48 135 113 135 C113 142.26 113 149.52 113 157 C105.41 157 97.82 157 90 157 C90 164.59 90 172.18 90 180 C60.3 180 30.6 180 0 180 C0 172.41 0 164.82 0 157 C-7.26 157 -14.52 157 -22 157 C-22 149.74 -22 142.48 -22 135 C-29.59 135 -37.18 135 -45 135 C-45 105.3 -45 75.6 -45 45 C-37.41 45 -29.82 45 -22 45 C-22 37.41 -22 29.82 -22 22 C-14.74 22 -7.48 22 0 22 C0 14.74 0 7.48 0 0 Z " fill="#EA76CB" transform="translate(562,90)"/>
<path d="M0 0 C29.7 0 59.4 0 90 0 C90 7.26 90 14.52 90 22 C97.59 22 105.18 22 113 22 C113 29.59 113 37.18 113 45 C120.26 45 127.52 45 135 45 C135 74.7 135 104.4 135 135 C127.74 135 120.48 135 113 135 C113 142.26 113 149.52 113 157 C105.41 157 97.82 157 90 157 C90 164.59 90 172.18 90 180 C60.3 180 30.6 180 0 180 C0 172.41 0 164.82 0 157 C-7.26 157 -14.52 157 -22 157 C-22 149.74 -22 142.48 -22 135 C-29.59 135 -37.18 135 -45 135 C-45 105.3 -45 75.6 -45 45 C-37.41 45 -29.82 45 -22 45 C-22 37.41 -22 29.82 -22 22 C-14.74 22 -7.48 22 0 22 C0 14.74 0 7.48 0 0 Z " fill="#EA76CB" transform="translate(67,90)"/>
<path d="M0 0 C29.7 0 59.4 0 90 0 C90 7.59 90 15.18 90 23 C97.26 23 104.52 23 112 23 C112 30.26 112 37.52 112 45 C119.59 45 127.18 45 135 45 C135 74.7 135 104.4 135 135 C127.41 135 119.82 135 112 135 C112 142.59 112 150.18 112 158 C104.74 158 97.48 158 90 158 C90 165.26 90 172.52 90 180 C60.3 180 30.6 180 0 180 C0 172.74 0 165.48 0 158 C-7.59 158 -15.18 158 -23 158 C-23 150.41 -23 142.82 -23 135 C-30.26 135 -37.52 135 -45 135 C-45 105.3 -45 75.6 -45 45 C-37.74 45 -30.48 45 -23 45 C-23 37.74 -23 30.48 -23 23 C-15.41 23 -7.82 23 0 23 C0 15.41 0 7.82 0 0 Z " fill="#EA76CB" transform="translate(315,22)"/>
</svg>
